<svg xmlns="http://www.w3.org/2000/svg" width="728.801" height="544.453" viewBox="137.559 252.308 728.801 544.453"><defs><radialGradient id="b" r="100%" cx="35%" cy="28%"><stop offset="0%" stop-color="#eb8507"/><stop offset="33.333%" stop-color="#f52a2a"/><stop offset="66.667%" stop-color="#702af5"/><stop offset="100%" stop-color="#702af5"/></radialGradient><clipPath id="a"><path fill="currentColor" d="M779 571.5Q670 643 616 746t-124.5-3q-70.5-106-143-134T177 464q-99-117 50.5-147T456 295.5q79 8.5 228.5-33.5T861 360q27 140-82 211.5Z"/></clipPath></defs><g clip-path="url(#a)"><path fill="url(#b)" d="M779 571.5Q670 643 616 746t-124.5-3q-70.5-106-143-134T177 464q-99-117 50.5-147T456 295.5q79 8.5 228.5-33.5T861 360q27 140-82 211.5Z"/></g></svg>