<svg xmlns="http://www.w3.org/2000/svg" width="814.882" height="873.588" viewBox="101.722 72.347 814.882 873.588"><defs><radialGradient id="c" r="100%" cx="89%" cy="27%"><stop offset="0%" stop-color="#eb8507"/><stop offset="50%" stop-color="#f52a2a"/><stop offset="100%" stop-color="#702af5"/></radialGradient><clipPath id="b"><path fill="currentColor" d="M884 656q-72 156-228 248.5T365.5 883Q231 769 153.5 634.5t-39-308Q153 153 326.5 95T641 127.5Q782 218 869 359t15 297Z"/></clipPath><filter id="a" x="-50vw" y="-50vh" width="100vw" height="100vh"><feFlood flood-color="#fff" result="neutral-gray"/><feTurbulence type="fractalNoise" baseFrequency="2.5" numOctaves="100" stitchTiles="stitch" result="noise"/><feColorMatrix in="noise" type="saturate" values="0" result="destaturatedNoise"/><feComponentTransfer in="desaturatedNoise" result="theNoise"><feFuncA type="table" tableValues="0 0 0.15 0"/></feComponentTransfer><feBlend in="SourceGraphic" in2="theNoise" mode="soft-light" result="noisy-image"/></filter></defs><g filter="url(#a)" clip-path="url(#b)"><path fill="url(#c)" d="M884 656q-72 156-228 248.5T365.5 883Q231 769 153.5 634.5t-39-308Q153 153 326.5 95T641 127.5Q782 218 869 359t15 297Z"/></g></svg>