<?xml version="1.0" encoding="UTF-8" standalone="no"?>
<svg
   width="728.801"
   height="544.453"
   viewBox="137.559 252.308 728.801 544.453"
   version="1.1"
   id="svg20"
   sodipodiDocname="newblob.svg"
   inkscapeVersion="1.2.1 (9c6d41e4, 2022-07-14)"
   xmlnsInkscape="http://www.inkscape.org/namespaces/inkscape"
   xmlnsSodipodi="http://sodipodi.sourceforge.net/DTD/sodipodi-0.dtd"
   xmlns="http://www.w3.org/2000/svg"
   xmlnsSvg="http://www.w3.org/2000/svg">
  <sodipodiNamedview
     id="namedview22"
     pagecolor="#ffffff"
     bordercolor="#000000"
     borderopacity="0.25"
     inkscapeShowpageshadow="2"
     inkscapePageopacity="0.0"
     inkscapePagecheckerboard="0"
     inkscapeDeskcolor="#d1d1d1"
     showgrid="false"
     inkscapeZoom="0.43346257"
     inkscapeCx="92.28017"
     inkscapeCy="272.2265"
     inkscapeWindow-width="1440"
     inkscapeWindow-height="900"
     inkscapeWindow-x="0"
     inkscapeWindow-y="0"
     inkscapeWindow-maximized="0"
     inkscapeCurrent-layer="svg20" />
  <defs
     id="defs14">
    <radialGradient
       id="b"
       r="629.91897"
       cx="339.36727"
       cy="468.29118"
       gradientTransform="scale(1.1569757,0.86432239)"
       fx="339.36727"
       fy="468.29118"
       gradientUnits="userSpaceOnUse">
      <stop
         offset="0%"
         stop-color="#eb8507"
         id="stop2" />
      <stop
         offset="33.333%"
         stop-color="#f52a2a"
         id="stop4" />
      <stop
         offset="66.667%"
         stop-color="#702af5"
         id="stop6" />
      <stop
         offset="100%"
         stop-color="#702af5"
         id="stop8" />
    </radialGradient>
    <clipPath
       id="a">
      <path
         fill="currentColor"
         d="M779 571.5Q670 643 616 746t-124.5-3q-70.5-106-143-134T177 464q-99-117 50.5-147T456 295.5q79 8.5 228.5-33.5T861 360q27 140-82 211.5Z"
         id="path11" />
    </clipPath>
    <clipPath
       clipPathUnits="userSpaceOnUse"
       id="clipPath382">
      <rect
         style="opacity:0.386189;fill:#000000;fill-rule:evenodd;stroke:#000000;stroke-width:0.957128;stroke-linejoin:bevel"
         id="rect384"
         width="731.36078"
         height="132.72186"
         x="135.2318"
         y="252.28796" />
    </clipPath>
  </defs>
  <g
     clip-path="url(#clipPath382)"
     id="g18"
     transform="matrix(1,0,0,1.0084746,2.3070042,410.81556)">
    <path
       fill="url(#b)"
       d="M 779,571.5 Q 670,643 616,746 562,849 491.5,743 421,637 348.5,609 276,581 177,464 78,347 227.5,317 377,287 456,295.5 535,304 684.5,262 834,220 861,360 888,500 779,571.5 Z"
       id="path16"
       style="fill:url(#b)" />
  </g>
</svg>
